<svg width="75" height="84" viewBox="0 0 75 84" fill="none" xmlns="http://www.w3.org/2000/svg">
<path d="M75 27.7083C75 70.4167 37.5 83.3333 37.5 83.3333C37.5 83.3333 0 70.4167 0 27.7083C0 22.5 0.416667 18.125 0.833334 14.5833C1.45833 9.375 5 5.20833 10 3.95833C16.4583 2.08333 26.6667 0 37.5 0C48.3333 0 58.5417 2.08333 65.2083 3.95833C70.2083 5.20833 73.75 9.58333 74.375 14.5833C74.5833 18.125 75 22.7083 75 27.7083Z" fill="#5D4037"/>
<path d="M37.5 6.25C47.7083 6.25 57.2917 8.33333 63.5417 10C66.0417 10.625 67.7083 12.7083 68.125 15.4167C68.5417 19.375 68.75 23.5417 68.75 27.7083C68.75 60.2083 44.7917 73.3333 37.5 76.4583C30.2083 73.125 6.25 60 6.25 27.7083C6.25 23.5417 6.45833 19.375 6.875 15.4167C7.08333 12.7083 8.95833 10.625 11.4583 10C17.7083 8.33333 27.2917 6.25 37.5 6.25ZM37.5 0C26.6667 0 16.4583 2.08333 9.79167 3.95833C5 5.20833 1.25 9.58333 0.833333 14.5833C0.416667 18.125 0 22.7083 0 27.7083C0 70.4167 37.5 83.3333 37.5 83.3333C37.5 83.3333 75 70.4167 75 27.7083C75 22.5 74.5833 18.125 74.1667 14.5833C73.5417 9.375 70 5.20833 65 3.95833C58.5417 2.08333 48.3333 0 37.5 0Z" fill="#4CAF50"/>
<path d="M35.4167 50H39.5833V66.6667H35.4167V50Z" fill="#DCEDC8"/>
<path d="M37.5 12.5C37.5 12.5 25 22.9167 25 39.5833C25 50.4167 31.875 57.2917 35.4167 60.4167L37.5 54.1667L39.5833 60.4167C43.125 57.2917 50 50.4167 50 39.5833C50 22.9167 37.5 12.5 37.5 12.5Z" fill="#4CAF50"/>
<path d="M37.5 12.5C37.5 12.5 25 22.9167 25 39.5833C25 50.4167 31.875 57.2917 35.4167 60.4167L37.5 54.1667V12.5Z" fill="#81C784"/>
</svg>
