<svg width="84" height="84" viewBox="0 0 84 84" fill="none" xmlns="http://www.w3.org/2000/svg">
<path d="M31.1958 57.2917C31.1958 59.0167 29.7979 60.4167 28.0708 60.4167C26.3438 60.4167 24.9458 59.0167 24.9458 57.2917V28.125C24.9458 26.7646 25.8271 25.5604 27.1229 25.1458C28.425 24.7333 29.8354 25.2083 30.6208 26.3187L65.5729 75.7021C76.2854 68.1438 83.3333 55.6979 83.3333 41.6667C83.3333 18.75 64.5833 0 41.6667 0C18.75 0 0 18.75 0 41.6667C0 64.5833 18.75 83.3333 41.6667 83.3333C48.3167 83.3333 54.5958 81.7146 60.1875 78.9125L31.1958 37.95V57.2917ZM52.0292 26.0417C52.0292 24.3167 53.4271 22.9167 55.1542 22.9167C56.8812 22.9167 58.2792 24.3167 58.2792 26.0417V54.875L52.0292 46.0687V26.0417Z" fill="#212121"/>
</svg>
