<svg width="84" height="84" viewBox="0 0 84 84" fill="none" xmlns="http://www.w3.org/2000/svg">
<path d="M82 0H2C0.894 0 0 0.896 0 2V82C0 83.104 0.894 84 2 84H82C83.106 84 84 83.104 84 82V2C84 0.896 83.106 0 82 0ZM50 44.89H40V76H32V44.89H22V38H50V44.89ZM52.242 74.224V65.908C52.242 65.908 56.784 69.332 62.234 69.332C67.684 69.332 67.474 65.768 67.474 65.28C67.474 60.108 52.032 60.108 52.032 48.65C52.032 33.068 74.532 39.216 74.532 39.216L74.252 46.624C74.252 46.624 70.478 44.108 66.216 44.108C61.954 44.108 60.416 46.134 60.416 48.3C60.416 53.89 75.998 53.332 75.998 64.582C76 81.91 52.242 74.224 52.242 74.224Z" fill="#5686E1"/>
</svg>
